<svg width="1024" height="1024" xmlns="http://www.w3.org/2000/svg" xml:space="preserve" version="1.1">

 <g>
  <title>Layer 1</title>
  <path id="svg_1" fill="#f7f8f8" d="m293.4,951c-28.4,0 -44.3,-13.2 -52.7,-24.2c-5.9,-7.8 -9.3,-16.1 -11.5,-23.1c-24.9,-0.2 -51.1,-0.7 -51.5,-0.7l-1.9,0l-1.8,-0.4c-2.9,-0.6 -29.6,-6.6 -58.2,-29.6c-26.4,-21.2 -59.3,-61.4 -66.4,-132.9l-0.1,-1.1l0,-1.1c1.6,-120.4 0.2,-357.6 0.2,-370.7c-0.3,-5.5 -1.3,-35.6 11.2,-69.3c12.7,-34.4 42.1,-79.3 109.8,-98.4l2.6,-0.7l155.2,-0.4l-48.8,-47.4l-0.7,-0.9c-10.2,-12.6 -15.5,-39.3 11.7,-61.6c11.8,-9.7 20.1,-14.1 28.4,-15.2c12.7,-1.7 20.8,5.2 24.3,8.1c0.5,0.4 1.1,0.9 1.3,1.1c5.7,3.8 46.1,42.8 120.2,115.6l97.5,0.2c108.9,-107.3 114.9,-111.3 117.1,-112.9c0.2,-0.2 0.9,-0.7 1.3,-1.1c3.5,-3 11.5,-9.9 24.3,-8.1c8.3,1.1 16.6,5.6 28.4,15.2c27.2,22.3 21.9,49 11.7,61.6l-0.7,0.9l-45.9,44.5c83.9,0.3 144.7,0.3 145.4,0.3l2.2,0l2.1,0.5c1.3,0.3 31.8,7.2 62.4,31.1c28.3,22.2 62.5,63.8 64.2,135.7l0,0.8c-1.5,122.5 0,369.6 0,372.1l0,1c-0.1,1.4 -1.8,34.4 -17.6,70.1c-21.6,49.1 -59,79.9 -108.1,89l-2.1,0.4l-2.2,-0.1c-19.3,-0.6 -32.8,-0.7 -41.8,-0.6c-1.3,4.6 -3.1,9.7 -5.6,14.9c-11.4,23.7 -31.8,37 -57.3,37.5c-34.3,0.5 -58.9,-17.3 -68.4,-48.7c-60.7,0.2 -257.2,1.1 -314,1.4c-1.5,4.3 -3.5,8.9 -6.2,13.6c-12.3,21.6 -33,33.6 -58,33.6zm408.5,-832.6c-0.1,0.1 -0.2,0.1 -0.2,0.2l0.2,-0.2zm-380.1,-2.9c0.1,0.1 0.2,0.1 0.3,0.2c-0.1,-0.1 -0.2,-0.2 -0.3,-0.2z"/>
  <path id="svg_2" fill="#ff007f" d="m175.9,218.7c-115.3,32.5 -106.4,147.8 -106.4,147.8s1.5,246.8 -0.2,371.7c12.4,124.8 108.8,144.8 108.8,144.8s38.4,0.7 66.5,0.7c3,8.1 5.2,47.3 48.8,47.3c43.6,0 48.8,-47.3 48.8,-47.3s319.2,-1.5 345.8,-1.5c1.5,13.3 8.1,49.5 51.7,48.8c43.6,-0.7 46.6,-51.7 46.6,-51.7s14.8,-1.5 59.1,0c103.4,-19.2 109.4,-140.4 109.4,-140.4s-1.5,-248.3 0,-372.4c-3,-124.1 -110.8,-147.8 -110.8,-147.8s-85,0.1 -194.6,-0.5l80.2,-77.8s12.8,-15.8 -8.9,-33.5c-21.7,-17.7 -22.8,-9.9 -30.1,-4.9c-6.6,4.5 -103.1,99.5 -120.2,116.3l-113.8,-0.2s-115.9,-114.1 -123.2,-119.1c-7.3,-4.9 -8.5,-12.8 -30.1,4.9c-21.7,17.7 -8.9,33.5 -8.9,33.5l83.2,80.6l-201.7,0.7zm689.8,542.8c0,19.6 -15.5,35.5 -34.6,35.5l-629.3,0c-19.1,0 -34.6,-15.9 -34.6,-35.5l0,-416.7c0,-19.6 15.5,-35.5 34.6,-35.5l629.2,0c19.1,0 34.6,15.9 34.6,35.5l0,416.7l0.1,0z" class="st1"/>
  <path id="svg_3" fill="#ff007f" d="m512,340c-116,0 -210,94 -210,210s94,210 210,210s210,-94 210,-210s-94,-210 -210,-210zm0,375c-91.1,0 -165,-73.9 -165,-165s73.9,-165 165,-165s165,73.9 165,165s-73.9,165 -165,165z" class="st1"/>
  <path id="svg_4" fill="#ff007f" d="m512,490c-33.1,0 -60,26.9 -60,60c0,12.4 -10.1,22.5 -22.5,22.5s-22.5,-10.1 -22.5,-22.5c0,-58 47,-105 105,-105c12.4,0 22.5,10.1 22.5,22.5s-10.1,22.5 -22.5,22.5z" class="st1"/>
 </g>
</svg>